<?xml version="1.0" encoding="UTF-8"?>
<svg version="1.1" xmlns="http://www.w3.org/2000/svg" width="128" height="128">
<path d="M0 0 C42.24 0 84.48 0 128 0 C128 42.24 128 84.48 128 128 C85.76 128 43.52 128 0 128 C0 85.76 0 43.52 0 0 Z " fill="#FEFEFE" transform="translate(0,0)"/>
<path d="M0 0 C10.73520457 -0.18538418 21.47002831 -0.32751818 32.20650768 -0.41449738 C37.19203929 -0.45624463 42.17647573 -0.5128625 47.16137695 -0.60351562 C51.9725297 -0.69046117 56.78262949 -0.73827761 61.59450722 -0.75901794 C63.42986953 -0.77379681 65.26517434 -0.80265854 67.10008812 -0.84584045 C81.49465384 -1.17111196 81.49465384 -1.17111196 85.21296692 1.72161865 C86.56305898 3.82215365 87.32772783 5.60539841 88 8 C88.44988281 9.05703125 88.89976563 10.1140625 89.36328125 11.203125 C91.68241564 18.64726009 92.50498185 25.21486318 92 33 C91.34 33 90.68 33 90 33 C89.67 32.67 89.34 32.34 89 32 C89 32.33 89 32.66 89 33 C56.99 33 24.98 33 -8 33 C-8 19.35911602 -8 19.35911602 -6.8125 14.8125 C-6.59207031 13.91144531 -6.37164062 13.01039062 -6.14453125 12.08203125 C-5.10357213 9.27890242 -3.89262031 6.90434303 -2.4284668 4.30737305 C-1.9747319 3.49987106 -1.52099701 2.69236908 -1.05351257 1.86039734 C-0.70585342 1.24646622 -0.35819427 0.6325351 0 0 Z " fill="#EAEDEF" transform="translate(22,57)"/>
<path d="M0 0 C1.6002564 0.55469909 3.20051682 1.10938658 4.80078125 1.6640625 C5.57373535 1.93637695 6.34668945 2.20869141 7.14306641 2.48925781 C9.98043653 3.48422127 12.83245145 4.43211739 15.6875 5.375 C21.5625 7.33333333 27.4375 9.29166667 33.3125 11.25 C33.3125 11.58 33.3125 11.91 33.3125 12.25 C1.9625 12.25 -29.3875 12.25 -61.6875 12.25 C-61.6875 11.92 -61.6875 11.59 -61.6875 11.25 C-59.86458333 11.08723958 -58.04166667 10.92447917 -56.21875 10.76171875 C-53.29984909 10.1716323 -50.62681184 9.15196092 -47.85546875 8.0769043 C-43.47890934 6.40760174 -39.01147398 4.99536526 -34.56323242 3.53076172 C-31.06166602 2.37614651 -27.57162736 1.20877002 -24.09765625 -0.02734375 C-23.07542969 -0.38957031 -22.05320313 -0.75179687 -21 -1.125 C-19.69482422 -1.60066406 -19.69482422 -1.60066406 -18.36328125 -2.0859375 C-11.63101442 -3.75671905 -6.30533778 -2.26549585 0 0 Z " fill="#48586D" transform="translate(75.6875,77.75)"/>
<path d="M0 0 C0.98106468 -0.01752319 0.98106468 -0.01752319 1.98194885 -0.03540039 C4.14460906 -0.06899899 6.30658417 -0.07972472 8.46948242 -0.08740234 C9.9754002 -0.09958408 11.48131555 -0.11207013 12.98722839 -0.12484741 C16.14551222 -0.14732963 19.30355471 -0.15687793 22.46191406 -0.15917969 C26.50106447 -0.16445737 30.53819514 -0.21574709 34.57680225 -0.27869606 C37.68848997 -0.31965028 40.79969382 -0.32882254 43.91162682 -0.32929611 C45.39998598 -0.33466942 46.88835093 -0.35148747 48.37644386 -0.38014603 C60.011097 -0.58548869 60.011097 -0.58548869 63.79452515 2.02813721 C67.51245117 6.26175614 67.51245117 6.26175614 67.51245117 8.45166016 C41.11245117 8.45166016 14.71245117 8.45166016 -12.48754883 8.45166016 C-7.47130293 0.09125032 -7.47130293 0.09125032 0 0 Z " fill="#4E5D70" transform="translate(36.487548828125,47.54833984375)"/>
<path d="M0 0 C10.75260612 -0.13896354 21.50499898 -0.2456024 32.25831985 -0.31087303 C37.25147445 -0.34219856 42.24401516 -0.38469357 47.23681641 -0.45263672 C52.05440051 -0.51778588 56.87139388 -0.55369684 61.68938446 -0.56926346 C63.52829034 -0.58035784 65.36716353 -0.60202306 67.20581818 -0.63438034 C69.78017758 -0.67788672 72.35209049 -0.68393686 74.92675781 -0.68115234 C75.68848801 -0.702724 76.4502182 -0.72429565 77.23503113 -0.746521 C79.36798096 -0.7215271 79.36798096 -0.7215271 83 0 C87 4.75940051 87 4.75940051 87 7 C81.53738362 7.07428762 76.07506284 7.12866714 70.61206055 7.16479492 C68.75458655 7.17985946 66.89714799 7.20031509 65.03979492 7.22631836 C62.36628461 7.26280459 59.69324556 7.2797497 57.01953125 7.29296875 C56.19226028 7.30845261 55.36498932 7.32393646 54.51264954 7.33988953 C49.73868223 7.34127562 47.00591388 6.84597138 43 4 C39.90469271 4.27311535 38.66562645 5.2229157 36 7 C33.02608939 7.17222348 30.14797082 7.23194201 27.17578125 7.1953125 C26.31438034 7.1924826 25.45297943 7.18965271 24.56547546 7.18673706 C21.81434231 7.17554237 19.06353475 7.15043921 16.3125 7.125 C14.44727033 7.11496927 12.58203555 7.10584359 10.71679688 7.09765625 C6.1444058 7.07560538 1.57225811 7.04108049 -3 7 C-1.125 2.25 -1.125 2.25 0 0 Z " fill="#47576C" transform="translate(22,57)"/>
<path d="M0 0 C1.8984375 1.40234375 1.8984375 1.40234375 2.8984375 3.40234375 C-17.5615625 3.40234375 -38.0215625 3.40234375 -59.1015625 3.40234375 C-43.51126018 -12.18795857 -18.00946915 -11.16359839 0 0 Z " fill="#48576C" transform="translate(92.1015625,43.59765625)"/>
<path d="M0 0 C12.21 0 24.42 0 37 0 C37.66 1.98 38.32 3.96 39 6 C34.73170529 6.12456859 30.46440204 6.2147864 26.19482422 6.2746582 C24.74574326 6.29964236 23.29678625 6.33364269 21.84814453 6.37719727 C13.30085386 6.62754865 6.78997543 6.75556511 0 1 C0 0.67 0 0.34 0 0 Z " fill="#4B5A6E" transform="translate(73,65)"/>
<path d="M0 0 C1.51815699 0.00015911 3.0363194 0.00585313 4.55444336 0.01586914 C5.35208603 0.01728409 6.1497287 0.01869904 6.97154236 0.02015686 C9.52916146 0.02577223 12.08669429 0.03832727 14.64428711 0.05102539 C16.37410356 0.05603841 18.10392137 0.06060166 19.83374023 0.06469727 C24.08312264 0.07574664 28.33244023 0.09302153 32.58178711 0.11352539 C27.30041586 4.39571829 24.6388084 6.36717114 17.72631836 6.30883789 C17.06468185 6.306008 16.40304535 6.3031781 15.72135925 6.30026245 C13.61214974 6.28908457 11.50336786 6.2639852 9.39428711 6.23852539 C7.96265263 6.22849246 6.53101147 6.21936715 5.09936523 6.21118164 C1.59336734 6.18915334 -1.91238103 6.15464024 -5.41821289 6.11352539 C-4.34682538 0.14436639 -4.34682538 0.14436639 0 0 Z " fill="#4B5A6E" transform="translate(21.418212890625,64.886474609375)"/>
<path d="M0 0 C4.47915328 -0.02886338 8.95828291 -0.04675187 13.4375 -0.0625 C14.71689453 -0.07087891 15.99628906 -0.07925781 17.31445312 -0.08789062 C19.13686523 -0.09272461 19.13686523 -0.09272461 20.99609375 -0.09765625 C22.12200928 -0.10289307 23.2479248 -0.10812988 24.40795898 -0.11352539 C27 0 27 0 28 1 C28.04092937 3.33297433 28.04241723 5.66705225 28 8 C25.20826945 8.02690104 22.41679652 8.04679053 19.625 8.0625 C18.43390625 8.07506836 18.43390625 8.07506836 17.21875 8.08789062 C11.2265625 8.11328125 11.2265625 8.11328125 9 7 C9 6.34 9 5.68 9 5 C8.443125 4.896875 7.88625 4.79375 7.3125 4.6875 C4.54289253 3.86410318 2.39747583 2.59831722 0 1 C0 0.67 0 0.34 0 0 Z " fill="#556276" transform="translate(85,72)"/>
<path d="M0 0 C1.12591553 0.00523682 2.25183105 0.01047363 3.41186523 0.01586914 C4.62680664 0.0190918 5.84174805 0.02231445 7.09350586 0.02563477 C8.37290039 0.03401367 9.65229492 0.04239258 10.97045898 0.05102539 C12.2537207 0.05553711 13.53698242 0.06004883 14.85913086 0.06469727 C18.04211921 0.07652994 21.22501661 0.09301471 24.40795898 0.11352539 C23.63919434 0.72744141 22.87042969 1.34135742 22.07836914 1.97387695 C20.27126033 3.42181091 18.47245354 4.88015736 16.68139648 6.34790039 C12.31615234 8.70242349 8.89781609 8.5652579 4.03295898 8.36352539 C2.78579102 8.33645508 2.78579102 8.33645508 1.51342773 8.30883789 C-0.52223176 8.26204112 -2.55729192 8.19030838 -4.59204102 8.11352539 C-3.57936278 0.1567678 -3.57936278 0.1567678 0 0 Z " fill="#536175" transform="translate(18.592041015625,71.886474609375)"/>
<path d="M0 0 C0.52489014 0.14268814 1.04978027 0.28537628 1.59057617 0.43238831 C4.9087209 1.21407633 8.16330556 1.11399102 11.55078125 1.08178711 C12.30571869 1.07872055 13.06065613 1.07565399 13.83847046 1.07249451 C15.47430486 1.0653523 17.11013068 1.05596902 18.74594116 1.04459953 C21.33494638 1.02719284 23.92388975 1.01690511 26.51293945 1.00868225 C33.87294362 0.98424046 41.23286423 0.94861827 48.59277344 0.90405273 C53.0971929 0.87727527 57.60156441 0.86022952 62.10604858 0.84918404 C63.82207006 0.84297508 65.53808215 0.83297078 67.25405884 0.81910515 C69.6525075 0.79989459 72.05070353 0.79299384 74.44921875 0.78881836 C75.51225723 0.77567596 75.51225723 0.77567596 76.59677124 0.76226807 C80.55785956 0.77014269 82.32924729 1.16462364 86 3 C54.65 3 23.3 3 -9 3 C-9 2.67 -9 2.34 -9 2 C-6.94921875 1.77213542 -4.8984375 1.54427083 -2.84765625 1.31640625 C-0.98859771 1.18113386 -0.98859771 1.18113386 0 0 Z " fill="#515C6C" transform="translate(23,87)"/>
<path d="M0 0 C7.26 0 14.52 0 22 0 C16.375 4.5 16.375 4.5 12.57421875 4.390625 C11.77822266 4.37773438 10.98222656 4.36484375 10.16210938 4.3515625 C9.34548828 4.31804687 8.52886719 4.28453125 7.6875 4.25 C6.85154297 4.23195313 6.01558594 4.21390625 5.15429688 4.1953125 C3.10236772 4.14841126 1.05103244 4.07667411 -1 4 C-0.67 2.68 -0.34 1.36 0 0 Z " fill="#838E9D" transform="translate(15,76)"/>
<path d="M0 0 C7.26 0 14.52 0 22 0 C22 1.32 22 2.64 22 4 C19.20826945 4.02690104 16.41679652 4.04679053 13.625 4.0625 C12.43390625 4.07506836 12.43390625 4.07506836 11.21875 4.08789062 C5.2265625 4.11328125 5.2265625 4.11328125 3 3 C3 2.34 3 1.68 3 1 C2.01 0.67 1.02 0.34 0 0 Z " fill="#848F9E" transform="translate(91,76)"/>
<path d="M0 0 C2.97 0 5.94 0 9 0 C9 1.98 9 3.96 9 6 C8.34 6 7.68 6 7 6 C7 5.34 7 4.68 7 4 C6.01 4 5.02 4 4 4 C4 3.34 4 2.68 4 2 C2.68 1.67 1.36 1.34 0 1 C0 0.67 0 0.34 0 0 Z " fill="#989EA7" transform="translate(105,84)"/>
<path d="M0 0 C2.97 0 5.94 0 9 0 C5.67692308 3.93846154 5.67692308 3.93846154 2.25 4.25 C1.5075 4.1675 0.765 4.085 0 4 C0 2.68 0 1.36 0 0 Z " fill="#9399A3" transform="translate(14,84)"/>
<path d="M0 0 C3.09139012 0.5329983 5.10319937 1.55159968 8 3 C2.39 3 -3.22 3 -9 3 C-9 2.67 -9 2.34 -9 2 C-6.94921875 1.77213542 -4.8984375 1.54427083 -2.84765625 1.31640625 C-0.98859771 1.18113386 -0.98859771 1.18113386 0 0 Z " fill="#646D79" transform="translate(23,87)"/>
<path d="M0 0 C0.66 0.33 1.32 0.66 2 1 C1 3 1 3 -1 5 C-3.75372909 5.36933645 -6.20365661 5.18336678 -9 5 C-9 4.67 -9 4.34 -9 4 C-7.6078125 3.566875 -7.6078125 3.566875 -6.1875 3.125 C-2.90208333 2.1125 -2.90208333 2.1125 0 0 Z " fill="#E7EBEE" transform="translate(23,84)"/>
</svg>
